<svg class="bob" font-family="arial" font-size="14" height="416" width="616" xmlns="http://www.w3.org/2000/svg">
<defs>
<marker id="triangle" markerHeight="8" markerWidth="8" orient="auto" refX="4" refY="2" viewBox="0 0 8 4">
<polygon fill="black" points="0,0 0,4 8,2 0,0"/>
</marker>
<marker id="clear_triangle" markerHeight="10" markerWidth="10" orient="auto" refX="1" refY="7" viewBox="0 0 20 14">
<polygon fill="none" points="2,2 2,12 18,7 2,2" stroke="black" stroke-width="2"/>
</marker>
<marker id="circle" markerHeight="5" markerWidth="5" orient="auto" refX="10" refY="10" viewBox="0 0 20 20">
<circle cx="10" cy="10" fill="black" r="8"/>
</marker>
<marker id="square" markerHeight="5" markerWidth="5" orient="auto" refX="10" refY="10" viewBox="0 0 20 20">
<rect fill="black" height="20" width="20" x="0" y="0"/>
</marker>
<marker id="open_circle" markerHeight="10" markerWidth="10" orient="auto" refX="10" refY="10" viewBox="0 0 20 20">
<circle cx="10" cy="10" fill="white" r="4" stroke="black" stroke-width="2"/>
</marker>
<marker id="big_open_circle" markerHeight="20" markerWidth="20" orient="auto" refX="20" refY="20" viewBox="0 0 40 40">
<circle cx="20" cy="20" fill="white" r="6" stroke="black" stroke-width="2"/>
</marker>
</defs>
<style type="text/css">

    line,path {
      stroke: black;
      stroke-width: 2;
      stroke-opacity: 1;
      fill-opacity: 1;
      stroke-linecap: round;
      stroke-linejoin: miter;
    }
    line.dashed {
        stroke-dasharray: 5;
    }
    circle.solid {
      fill:black;
      stroke: black;
      stroke-width: 2;
      stroke-opacity: 1;
      fill-opacity: 1;
      stroke-linecap: round;
      stroke-linejoin: miter;
    }
    circle.open {
      fill:none;
      stroke: black;
      stroke-width: 2;
      stroke-opacity: 1;
      fill-opacity: 1;
      stroke-linecap: round;
      stroke-linejoin: miter;
    }
    tspan.head{
        fill: none;
        stroke: none;
    }
    
</style>
<rect fill="white" height="416" width="616" x="0" y="0"/>
<g>
<line x1="28" x2="28" y1="104" y2="136"/>
<line x1="28" x2="100" y1="104" y2="104"/>
<line x1="28" x2="108" y1="136" y2="136"/>
<line x1="100" x2="212" y1="104" y2="104"/>
<line marker-end="url(#triangle)" x1="108" x2="108" y1="136" y2="188"/>
<line x1="108" x2="212" y1="136" y2="136"/>
<line x1="212" x2="212" y1="104" y2="136"/>
</g>
<g>
<line x1="44" x2="44" y1="8" y2="40"/>
<line x1="44" x2="172" y1="8" y2="8"/>
<line x1="44" x2="100" y1="40" y2="40"/>
<line x1="100" x2="172" y1="40" y2="40"/>
<line x1="172" x2="172" y1="8" y2="40"/>
</g>
<g>
<line x1="68" x2="68" y1="200" y2="232"/>
<line x1="68" x2="108" y1="200" y2="200"/>
<line x1="68" x2="108" y1="232" y2="232"/>
<line x1="108" x2="148" y1="200" y2="200"/>
<line x1="108" x2="108" y1="232" y2="280"/>
<line x1="108" x2="148" y1="232" y2="232"/>
<line marker-end="url(#triangle)" x1="108" x2="364" y1="280" y2="280"/>
<line x1="148" x2="148" y1="200" y2="232"/>
</g>
<g>
<line marker-end="url(#triangle)" x1="108" x2="108" y1="48" y2="92"/>
</g>
<g>
<line x1="372" x2="372" y1="104" y2="136"/>
<line x1="372" x2="508" y1="104" y2="104"/>
<line x1="372" x2="372" y1="136" y2="168"/>
<line x1="372" x2="508" y1="136" y2="136"/>
<line x1="372" x2="372" y1="168" y2="200"/>
<line x1="372" x2="508" y1="168" y2="168"/>
<line x1="372" x2="372" y1="200" y2="232"/>
<line x1="372" x2="508" y1="200" y2="200"/>
<line x1="372" x2="372" y1="232" y2="264"/>
<line x1="372" x2="508" y1="232" y2="232"/>
<line x1="372" x2="372" y1="264" y2="296"/>
<line x1="372" x2="508" y1="264" y2="264"/>
<line x1="372" x2="372" y1="296" y2="328"/>
<line x1="372" x2="508" y1="296" y2="296"/>
<line x1="372" x2="372" y1="328" y2="360"/>
<line x1="372" x2="508" y1="328" y2="328"/>
<line x1="372" x2="508" y1="360" y2="360"/>
<line x1="508" x2="508" y1="104" y2="136"/>
<line x1="508" x2="508" y1="136" y2="168"/>
<line x1="508" x2="508" y1="168" y2="200"/>
<line x1="508" x2="508" y1="200" y2="232"/>
<line x1="508" x2="508" y1="232" y2="264"/>
<line x1="508" x2="508" y1="264" y2="296"/>
<line x1="508" x2="508" y1="296" y2="328"/>
<line x1="508" x2="508" y1="328" y2="360"/>
</g>
<g>
<text x="33" y="396">
parallel_hash_map with 8 submaps, each submap is an absl::flat_hash_map
</text>
</g>
<g>
<text x="41" y="124">
h=0x7d84ea13707f4657
</text>
</g>
<g>
<text x="57" y="28">
(Key, Value)
</text>
</g>
<g>
<text x="73" y="220">
idx = 5
</text>
</g>
<g>
<text x="121" y="172">
(h ^ (h &gt;&gt; 3)) &amp; 0x7
</text>
</g>
<g>
<text x="129" y="76">
hasher
</text>
</g>
<g>
<text x="377" y="76">
Parallel Hash Map
</text>
</g>
<g>
<text x="377" y="92">
(with 8 submaps)
</text>
</g>
<g>
<text x="393" y="124">
submap0
</text>
</g>
<g>
<text x="393" y="156">
submap1
</text>
</g>
<g>
<text x="393" y="188">
submap2
</text>
</g>
<g>
<text x="393" y="220">
submap3
</text>
</g>
<g>
<text x="393" y="252">
submap4
</text>
</g>
<g>
<text x="393" y="284">
submap5
</text>
</g>
<g>
<text x="393" y="316">
submap6
</text>
</g>
<g>
<text x="393" y="348">
submap7
</text>
</g>
</svg>
